<svg id="Layer_1" data-name="Layer 1" xmlns="http://www.w3.org/2000/svg" viewBox="0 0 1252.66 717.37"><defs><style>.cls-1{fill:#fab429;}</style></defs><title>ukge</title><path class="cls-1" d="M642.37,316.21c1.39,0,2.45.87,4.74,5.45L695,419.79l47.69-99.35c1.42-2.83,2.29-4.23,3.86-4.23s2.63,1.77,3.16,5.45l15.94,108c1.6,11.11,3.34,16.22,8.6,17.81a34.62,34.62,0,0,0,10.86,1.75c1.58,0,2.82.18,2.82,1.24,0,1.43-2.11,1.93-4.55,1.93-4.4,0-28.6-.34-35.62-.87-4-.35-5.07-.87-5.07-1.93,0-.87.7-1.41,1.92-1.94,1-.37,1.57-2.67.89-7.59L735,363.32h-.71L696,442.05c-4.06,8.25-4.92,9.87-6.5,9.87s-3.34-3.55-6.16-8.84c-4.17-8.1-18-35.1-20.14-40.05-1.58-3.7-12.1-24.54-18.26-37.77h-.68l-9.13,68.82a66.49,66.49,0,0,0-.53,8.28c0,3.37,2.29,4.95,5.27,5.67a32.73,32.73,0,0,0,7.36.87c1.42,0,2.63.35,2.63,1.24,0,1.6-1.55,1.94-4.2,1.94-7.38,0-15.26-.53-18.42-.53s-11.73.53-17.36.53c-1.74,0-3.16-.34-3.16-1.94,0-.89,1.06-1.24,2.82-1.24a22.43,22.43,0,0,0,5.26-.53c4.92-1.06,6.32-7.94,7.18-13.92l17.36-113.66c.53-3,1.58-4.58,3-4.58m-63.13-.5V452.92l118.12,68.61,23.15-13.46,94.91-55.15V315.71l-59-34.32-59-34.28-59.05,34.28Z" transform="translate(-71 -25.63)"/><path class="cls-1" d="M1172.25,448.9c-2.82-1.22-3.34-2.11-3.34-6,0-9.68.71-20.27.89-23.11.18-2.64.68-4.57,2.11-4.57s1.73,1.58,1.73,3a36.42,36.42,0,0,0,1.61,9c3.84,13.08,14.17,17.81,25.06,17.81,15.78,0,23.49-10.74,23.49-20.12,0-8.65-2.63-16.75-17.18-28.21l-8.07-6.36c-19.28-15.16-26-27.52-26-41.85,0-19.4,16.12-33.35,40.5-33.35a83.41,83.41,0,0,1,23.33,3c1.58.35,2.45.87,2.45,2.12,0,2.3-.68,7.41-.68,21.17,0,3.9-.53,5.3-1.92,5.3-1.24,0-1.76-1.06-1.76-3.18a21.56,21.56,0,0,0-4.58-11.65c-2.64-3.33-7.71-8.65-19.12-8.65-13,0-20.86,7.6-20.86,18.18,0,8.13,4,14.3,18.6,25.42l4.91,3.7c21.2,16.07,28.75,28.24,28.75,45,0,10.24-3.86,22.42-16.46,30.71-8.79,5.63-18.63,7.22-27.92,7.22-10.14,0-18-1.21-25.58-4.58m151.41,4V315.72l-118.08-68.61-118.12,68.61v137.2l118.12,68.6Z" transform="translate(-71 -25.63)"/><path class="cls-1" d="M911,318.05c4.76,0,9.81.15,14.2.15,4.58.19,8.61.38,11,.38,5.64,0,40.51,0,43.86-.19a63.42,63.42,0,0,0,7.55-1.06,17.59,17.59,0,0,1,2.78-.68c.9,0,1.06.68,1.06,1.55,0,1.25-.87,3.4-1.4,11.49-.19,1.78-.52,9.53-.89,11.65-.16.87-.5,1.93-1.74,1.93s-1.57-.87-1.57-2.46a19.36,19.36,0,0,0-1.06-6.35c-1.2-3.17-3-5.3-11.76-6.35-3-.34-21.41-.72-24.88-.72-.89,0-1.23.56-1.23,1.77v44.66c0,1.25.18,1.94,1.23,1.94,3.84,0,24,0,28.07-.35s6.81-.9,8.39-2.68c1.24-1.4,1.91-2.27,2.81-2.27.71,0,1.24.34,1.24,1.4s-.71,3.9-1.42,12.89c-.19,3.52-.72,10.59-.72,11.8,0,1.43,0,3.4-1.54,3.4-1.25,0-1.58-.72-1.58-1.62a50.21,50.21,0,0,0-.71-6.35c-.89-3.52-3.34-6.17-9.81-6.88-3.35-.35-20.7-.54-24.88-.54-.9,0-1.08.72-1.08,1.78v14c0,6-.16,22.23,0,27.34.34,12.18,3.15,14.79,21,14.79,4.54,0,11.91,0,16.46-2.08s6.69-5.82,7.92-13c.34-2,.68-2.65,1.92-2.65,1.4,0,1.4,1.41,1.4,3.18a140.78,140.78,0,0,1-2.27,19.59C992.24,452,990.66,452,984,452c-13.15,0-22.8-.34-30.35-.53-7.52-.35-13-.53-18.23-.53-1.92,0-5.78,0-10,.18-4.06,0-8.6.35-12.1.35-2.29,0-3.53-.53-3.53-1.78,0-.87.71-1.4,2.81-1.4a26.68,26.68,0,0,0,6.32-.72c3.53-.68,4.39-4.57,5.07-9.71.9-7.38.9-21.34.9-37.56V369.24c0-26.84,0-31.79-.34-37.43-.37-6-1.76-8.81-7.55-10.06a37.19,37.19,0,0,0-6.84-.53c-1.95,0-3-.34-3-1.58s1.24-1.59,3.87-1.59M833.37,452.92l118.11,68.6,66.19-38.46,51.9-30.14V315.72L951.45,247.11l-3.78,2.18-114.3,66.43Z" transform="translate(-71 -25.63)"/><path class="cls-1" d="M438,352.4c-.52,0-.86.87-1.05,1.55l-16.12,43.26c-.19.72,0,1.21.68,1.21h32.27c.87,0,1.05-.49.87-1.06L438.94,354c-.22-.68-.37-1.55-.9-1.55" transform="translate(-71 -25.63)"/><path class="cls-1" d="M416.47,408.67,407,432.86a33.94,33.94,0,0,0-2.62,10.75c0,3.18,1.57,5.48,7,5.48H414c2.1,0,2.63.34,2.63,1.4,0,1.4-1.06,1.78-3,1.78-5.6,0-13.16-.53-18.57-.53-1.92,0-11.57.53-20.7.53-2.29,0-3.34-.38-3.34-1.78,0-1.06.7-1.4,2.13-1.4a51.29,51.29,0,0,0,5.42-.37c8.07-1,11.38-7.07,14.91-15.86l44-109.43c2.1-5.13,3.12-7.06,4.91-7.06,1.58,0,2.63,1.58,4.37,5.66,4.21,9.72,32.28,80.28,43.5,107.1C497,445,502,447.5,505.71,448.37a38.53,38.53,0,0,0,7.41.72c1.39,0,2.25.16,2.25,1.4,0,1.4-1.58,1.78-8,1.78s-19.13,0-33.18-.38c-3.15-.15-5.23-.15-5.23-1.4,0-1.06.68-1.4,2.45-1.59a2.88,2.88,0,0,0,1.58-4L458.9,408.48a1.68,1.68,0,0,0-1.77-1.21H418.05c-.87,0-1.21.34-1.58,1.4M492,493.21l69.38-40.29V315.72L502.28,281.4l-59-34.29L325.12,315.72v137.2l118.12,68.6Z" transform="translate(-71 -25.63)"/><path class="cls-1" d="M119.4,384.31c0-28.21,14.57-48,30.51-57.7,16.84-10.24,32.43-11.49,47.16-11.49a212.64,212.64,0,0,1,31,2.83,113,113,0,0,0,13.87,2c2.1.16,2.44.87,2.44,2.12,0,1.93-1.21,6.88-1.21,28.93,0,2.84-.53,3.71-1.92,3.71-1.24,0-1.58-.87-1.76-2.31-.53-4.05-1.39-9.71-5.94-14.63-5.3-5.64-19.31-13.77-39.15-13.77-9.62,0-22.43.69-34.72,10.94-9.81,8.31-16.09,21.54-16.09,43.25,0,37.93,24,66.33,61,66.33,4.58,0,10.71,0,14.92-1.93,2.63-1.25,3.34-3.52,3.34-6.54v-16.6c0-8.81,0-15.51-.19-20.8-.15-6-1.76-8.84-7.55-10.06a36.92,36.92,0,0,0-6.83-.53c-1.58,0-2.6-.34-2.6-1.4,0-1.43,1.2-1.77,3.65-1.77,9.12,0,20.17.53,25.43.53,5.45,0,14.73-.53,20.52-.53,2.26,0,3.5.34,3.5,1.77,0,1.06-1.05,1.4-2.26,1.4a28.26,28.26,0,0,0-4.74.53c-4.73.87-6.49,3.89-6.68,10.06-.19,5.29-.19,12.36-.19,21.17v19.43c0,4.74-.15,5.11-2.26,6.33-11.41,6-28.59,7.94-42.27,7.94-42.95,0-81-20.46-81-69.17m187.8,68.61V315.72L189.11,247.11,71,315.72v137.2l118.11,68.6Z" transform="translate(-71 -25.63)"/><path class="cls-1" d="M1079.32,536.6c43.63,0,70.83,25.59,70.83,66S1122.08,675,1077.55,675c-50.34,0-70.64-38-70.64-69.19,0-30.18,19.8-69.16,72.41-69.16m-118.9.56V674.4l118.1,68.6,118.08-68.6V537.19l-95.38-55.43-22.7-13.21-68.33,39.71Z" transform="translate(-71 -25.63)"/><path class="cls-1" d="M1084.92,666.11c12.29,0,40.69-6,40.69-57,0-39.55-22.62-64.07-51.4-64.07-20.14,0-43.14,11.31-43.14,55.25,0,36.68,20.18,65.8,53.85,65.8" transform="translate(-71 -25.63)"/><path class="cls-1" d="M786.52,672.46c-2.27,0-3.51-.5-3.51-1.74,0-.9.69-1.4,2.82-1.4a29.21,29.21,0,0,0,6.32-.72c3.49-.71,4.39-4.61,5.07-9.71.87-7.41.87-21.37.87-37.59v-31c0-26.84,0-31.76-.35-37.43-.33-6-1.73-8.81-7.51-10.06a37.4,37.4,0,0,0-6.87-.53c-1.92,0-3-.34-3-1.59s1.23-1.59,3.86-1.59c9.29,0,20.34.53,25.25.53,7.19,0,17.36-.53,25.44-.53,21.91,0,29.81,7.42,32.62,10.06a30.91,30.91,0,0,1,8.72,21c0,25.06-18.22,42.69-43.1,42.69a23.63,23.63,0,0,1-3.68-.19c-.9-.15-2.11-.34-2.11-1.59s1.21-1.93,4.89-1.93c9.84,0,23.52-11.12,23.52-29.11,0-5.83-.53-17.66-10.37-26.48a27.58,27.58,0,0,0-24.35-6.19c-.87.37-1.42,1.43-1.42,3.36v70.6c0,16.22,0,30.18.9,37.77.52,4.92,1.57,8.82,6.83,9.53a75.94,75.94,0,0,0,9,.72c1.92,0,2.78.5,2.78,1.4,0,1.24-1.39,1.74-3.31,1.74-11.57,0-22.62-.5-27.17-.5-4,0-15.1.5-22.12.5m156,1.93V537.19L843,479.33l-18.57-10.78-42.24,24.54-75.84,44.07V674.39L824.39,743Z" transform="translate(-71 -25.63)"/><path class="cls-1" d="M301,540c5.64,0,40.51,0,43.82-.15,3.34-.38,6.16-.72,7.58-1.06a15.08,15.08,0,0,1,2.79-.72c.87,0,1.05.72,1.05,1.59,0,1.21-.87,3.36-1.39,11.49-.16,1.74-.53,9.5-.87,11.65-.18.87-.52,1.93-1.76,1.93s-1.58-.87-1.58-2.46a19.48,19.48,0,0,0-1.05-6.39c-1.24-3.18-3-5.29-11.76-6.35-3-.34-21.38-.68-24.88-.68-.9,0-1.24.52-1.24,1.74v44.66c0,1.24.19,1.93,1.24,1.93,3.84,0,24,0,28-.35,4.2-.34,6.83-.87,8.41-2.64,1.24-1.41,1.95-2.28,2.82-2.28.68,0,1.24.35,1.24,1.4s-.71,3.87-1.43,12.9c-.15,3.52-.68,10.55-.68,11.8,0,1.43,0,3.36-1.57,3.36a1.42,1.42,0,0,1-1.62-1.58,43.5,43.5,0,0,0-.67-6.36c-.9-3.55-3.35-6.2-9.81-6.91-3.35-.31-20.71-.5-25-.5-.83,0-1,.68-1,1.74v14c0,6-.15,22.23,0,27.34.34,12.17,3.16,14.86,21,14.86,4.58,0,11.92,0,16.5-2.16s6.65-5.79,7.89-13c.34-2,.68-2.64,1.92-2.64s1.39,1.4,1.39,3.17a135.86,135.86,0,0,1-2.29,19.59c-1.2,4.58-2.79,4.58-9.47,4.58-13.12,0-22.77-.34-30.32-.53s-13-.53-18.23-.53c-1.95,0-5.79,0-10,.19-4.06,0-8.61.34-12.1.34-2.29,0-3.53-.53-3.53-1.77,0-.88.71-1.37,2.84-1.37a28.44,28.44,0,0,0,6.29-.73c3.49-.71,4.39-4.6,5.1-9.71.87-7.41.87-21.36.87-37.58V590.68c0-26.8,0-31.76-.37-37.42-.35-6-1.74-8.82-7.52-10.06a35.89,35.89,0,0,0-6.84-.53c-1.92,0-3-.34-3-1.56s1.23-1.62,3.87-1.62c4.73,0,9.83.19,14.2.19,4.57.19,8.6.34,11,.34m-102.92-2.86V674.4L316.18,743l118.09-68.6V537.16L347.59,486.8l-31.41-18.25-29.34,17Z" transform="translate(-71 -25.63)"/><path class="cls-1" d="M760.4,226.55c0-.86.71-1.4,2.81-1.4a27.72,27.72,0,0,0,6.32-.71c3.49-.69,4.36-4.58,5-9.72.9-7.38.9-21.33.9-37.55V146.09c0-26.82,0-31.77-.34-37.44-.37-6-1.77-8.78-7.53-10a37.2,37.2,0,0,0-6.86-.53c-1.93,0-3-.37-3-1.59s1.2-1.59,3.83-1.59c9.32,0,20.37.53,24.57.53s15.26-.53,21.23-.53c2.45,0,3.69.34,3.69,1.59S810,98.1,808.61,98.1a27,27,0,0,0-4.89.53c-4.74.87-6.16,3.86-6.5,10-.37,5.67-.37,10.62-.37,37.44v7.75h.9c6-6.51,31.56-32.82,36.64-38.8,4.91-5.82,8.75-10.25,8.75-13.24,0-1.93-.68-3.17-2.44-3.51-1.58-.38-2.29-.75-2.29-1.78,0-1.25.89-1.59,2.82-1.59,3.68,0,13.33.53,18.07.53,5.45,0,15.07-.53,20.51-.53,1.77,0,3,.34,3,1.59s-.86,1.59-2.59,1.59A33.74,33.74,0,0,0,870,100c-5.41,2.12-11.38,5.82-18.91,13.24-5.44,5.29-31.93,31.76-37.91,38.11,6.35,8.28,40.7,45.53,47.54,52.07,7.71,7.41,15.59,15.35,25.07,19.06,5.28,2.12,8.78,2.64,10.89,2.64,1.24,0,2.29.35,2.29,1.4,0,1.26-.9,1.78-4.21,1.78H879.47a115.61,115.61,0,0,1-12.1-.37c-9.5-.88-14.23-4.77-21.75-11.46-7.71-6.88-42.27-47.65-46-52.76l-1.92-2.64h-.9v16.07c0,16.22,0,30.17.56,37.74.34,5,1.92,8.84,6.31,9.53a69.22,69.22,0,0,0,8.6.71c1.4,0,2.26.54,2.26,1.4,0,1.26-1.43,1.78-3.34,1.78-9.81,0-20.86-.52-25.22-.52-4,0-15.1.52-22.12.52-2.3,0-3.5-.52-3.5-1.78m64,73.53,39-22.61,79.13-46V94.24L824.39,25.63,706.31,94.24V231.48l59,34.28Z" transform="translate(-71 -25.63)"/><path class="cls-1" d="M503,98.1c-1.91,0-3-.37-3-1.59s1.2-1.59,3.83-1.59c9.29,0,20.37.53,25.62.53,4.19,0,15.26-.53,21.54-.53,2.63,0,3.87.34,3.87,1.59s-1,1.59-2.82,1.59a27.23,27.23,0,0,0-5.07.53c-4.73.87-6.13,3.86-6.47,10-.37,5.67-.37,10.62-.37,37.44v24.69c0,25.6,5.11,36.38,13.68,43.41,7.89,6.54,16,7.26,21.94,7.26,7.7,0,17.17-2.46,24.2-9.53,9.65-9.72,10.15-25.6,10.15-43.78v-22c0-26.82,0-31.77-.34-37.44-.34-6-1.77-8.78-7.55-10A34.68,34.68,0,0,0,596,98.1c-1.94,0-3-.37-3-1.59s1.21-1.59,3.69-1.59c8.94,0,20,.53,20.14.53,2.14,0,13.19-.53,20-.53,2.48,0,3.71.34,3.71,1.59s-1.08,1.59-3.15,1.59a27.39,27.39,0,0,0-5.11.53c-4.73.87-6.13,3.86-6.46,10-.38,5.67-.38,10.62-.38,37.44V165c0,19.55-1.91,40.39-16.64,53.1-12.45,10.77-25.07,12.7-36.49,12.7-9.29,0-26.12-.53-38.92-12.17-8.92-8.13-15.61-21.18-15.61-46.75V146.09c0-26.82,0-31.77-.33-37.44-.38-6-1.77-8.78-7.55-10A37.08,37.08,0,0,0,503,98.1m67.25,202,59-34.32,59.08-34.28V94.24L570.27,25.63,452.19,94.24V231.48l59,34.28Z" transform="translate(-71 -25.63)"/><path class="cls-1" d="M627.7,672.46h-5.26c-4.2,0-18.07,0-31.56-.34-4.58-.16-6-.53-6-1.77,0-1,.86-1.56,2.47-1.94.84-.15,1.55-1.74.34-4-9.65-17.32-19.65-34.79-27.73-48l-25.93,42.19c-1.76,2.8-2.63,5.46-2.47,7.41.18,1.59,1.76,2.65,3.34,3a24.53,24.53,0,0,0,4,.38c1.06,0,2.11.5,2.11,1.56,0,1.24-1.21,1.58-3.5,1.58h-3.19c-1,0-12.06-.5-16.46-.5-3.31,0-11.92.5-14.73.5h-3c-1.74,0-2.63-.5-2.63-1.58s1.05-1.56,2.44-1.56a26.91,26.91,0,0,0,6.5-.91c5.08-1.4,8.42-4.76,14.39-13.23L554.39,607l-30.16-50.3c-4.22-7-8.39-11.3-14.55-13.23a27.05,27.05,0,0,0-7.37-1.25,1.55,1.55,0,0,1-1.73-1.74c0-1.06,1.21-1.44,3.5-1.44,4.21,0,18.38.54,26.64.54,2.44,0,12.29-.54,18.76-.54,2.47,0,3.49.38,3.49,1.59s-1,1.59-2.6,1.59a16.16,16.16,0,0,0-4.73.72,2.9,2.9,0,0,0-2.11,2.84,12.9,12.9,0,0,0,1.77,5.1c7.52,14.14,15.41,27,22.25,39,5.07-7.75,21.23-32.26,23.85-37.22a15.26,15.26,0,0,0,1.92-6.72c0-1.22-1.23-2.62-3-3.18a21.54,21.54,0,0,0-5.63-.53c-1.05,0-2.1-.34-2.1-1.59,0-1,1.23-1.59,3.68-1.59,6.87,0,14.2.54,17.54.54,3.53,0,10.71-.54,17.18-.54,2,0,3.16.54,3.16,1.59s-1,1.59-2.79,1.59a23.32,23.32,0,0,0-6.31,1.09c-4.06,1.06-7.55,6-12.82,13.76l-28.74,41.64c5.6,8.63,34,56.46,38.4,62.1,3,3.89,5.6,6,10.18,7.44a23,23,0,0,0,6.65,1.06c1.21,0,2.26.34,2.26,1.4,0,1.24-1.39,1.74-3.31,1.74M452.19,537.16V674.4L570.27,743l118.12-68.6V537.19L570.27,468.55Z" transform="translate(-71 -25.63)"/><path d="M735,363.33l10.52,76.76c.68,4.92.15,7.22-.89,7.59-1.22.53-1.92,1.07-1.92,1.94,0,1.05,1.05,1.58,5.07,1.93,7,.53,31.22.87,35.62.87,2.44,0,4.55-.5,4.55-1.93,0-1.06-1.24-1.24-2.82-1.24a34.62,34.62,0,0,1-10.86-1.75c-5.26-1.59-7-6.7-8.61-17.81l-15.93-108c-.53-3.68-1.58-5.45-3.16-5.45s-2.44,1.4-3.86,4.24L695,419.78l-47.87-98.12c-2.29-4.58-3.35-5.45-4.74-5.45s-2.47,1.59-3,4.57L622,434.45c-.86,6-2.26,12.86-7.18,13.92a22.43,22.43,0,0,1-5.26.53c-1.76,0-2.81.35-2.81,1.25,0,1.59,1.41,1.93,3.15,1.93,5.63,0,14.05-.53,17.36-.53s11,.53,18.42.53c2.65,0,4.2-.34,4.2-1.93,0-.9-1.21-1.25-2.63-1.25a32.73,32.73,0,0,1-7.36-.87c-3-.72-5.27-2.3-5.27-5.67a66.38,66.38,0,0,1,.53-8.28l9.13-68.82H645c6.16,13.23,16.68,34.06,18.26,37.77,2.1,5,16,32,20.14,40.05,2.82,5.29,4.58,8.84,6.16,8.84s2.44-1.62,6.5-9.87l38.22-78.72Z" transform="translate(-71 -25.63)"/><path d="M1213.46,370.55l-4.91-3.7c-14.55-11.12-18.6-17.29-18.6-25.42,0-10.58,7.88-18.18,20.86-18.18,11.41,0,16.49,5.32,19.11,8.65a21.51,21.51,0,0,1,4.59,11.65c0,2.12.52,3.18,1.76,3.18,1.39,0,1.92-1.4,1.92-5.3,0-13.76.68-18.87.68-21.17,0-1.25-.87-1.77-2.45-2.12a83.41,83.41,0,0,0-23.33-3c-24.38,0-40.5,13.95-40.5,33.35,0,14.33,6.68,26.69,26,41.85l8.07,6.36c14.55,11.46,17.18,19.56,17.18,28.21,0,9.38-7.71,20.12-23.49,20.12-10.89,0-21.23-4.73-25.06-17.81a36.42,36.42,0,0,1-1.61-9c0-1.41-.16-3-1.73-3s-1.92,1.93-2.11,4.57c-.18,2.84-.89,13.43-.89,23.11,0,3.9.52,4.79,3.34,6,7.55,3.37,15.44,4.58,25.58,4.58,9.29,0,19.13-1.59,27.92-7.22,12.59-8.29,16.46-20.47,16.46-30.71,0-16.76-7.55-28.93-28.75-45" transform="translate(-71 -25.63)"/><path d="M994.34,424.64c-1.24,0-1.57.69-1.92,2.65-1.23,7.23-3.34,10.93-7.92,13s-11.91,2.08-16.46,2.08c-17.89,0-20.7-2.61-21-14.79-.16-5.11,0-21.36,0-27.34v-14c0-1.06.18-1.78,1.08-1.78,4.18,0,21.53.19,24.88.54,6.47.71,8.91,3.36,9.81,6.88a50.21,50.21,0,0,1,.71,6.35c0,.9.34,1.62,1.58,1.62,1.55,0,1.55-2,1.55-3.4,0-1.21.52-8.28.7-11.8.72-9,1.43-11.83,1.43-12.89s-.53-1.4-1.24-1.4c-.89,0-1.58.87-2.81,2.27-1.58,1.77-4.21,2.34-8.39,2.68s-24.23.34-28.07.34c-1.05,0-1.23-.68-1.23-1.93V329.16c0-1.21.34-1.77,1.23-1.77,3.47,0,21.91.38,24.89.72,8.75,1.05,10.55,3.18,11.75,6.35a19.3,19.3,0,0,1,1,6.35c0,1.59.34,2.46,1.58,2.46s1.58-1.06,1.74-1.93c.37-2.12.71-9.87.89-11.65.52-8.09,1.4-10.24,1.4-11.49,0-.87-.16-1.55-1.06-1.55a17.87,17.87,0,0,0-2.78.68,63.42,63.42,0,0,1-7.55,1.06c-3.35.19-38.22.19-43.85.19-2.44,0-6.47-.19-11-.38-4.39,0-9.44-.15-14.2-.15-2.63,0-3.87.34-3.87,1.59s1.05,1.58,3,1.58a37.19,37.19,0,0,1,6.84.53c5.79,1.25,7.18,4.08,7.55,10.06.34,5.64.34,10.59.34,37.43v31.05c0,16.22,0,30.18-.9,37.56-.68,5.14-1.54,9-5.07,9.71a26.62,26.62,0,0,1-6.32.72c-2.1,0-2.81.53-2.81,1.4,0,1.25,1.24,1.78,3.53,1.78,3.49,0,8-.35,12.1-.35,4.21-.18,8.07-.18,10-.18,5.26,0,10.71.18,18.23.53,7.55.19,17.2.53,30.35.53,6.65,0,8.24,0,9.47-4.58a140.78,140.78,0,0,0,2.27-19.59c0-1.77,0-3.18-1.4-3.18" transform="translate(-71 -25.63)"/><path d="M453.82,398.42H421.54c-.67,0-.86-.49-.67-1.21L437,354c.19-.68.53-1.55,1.05-1.55s.68.87.9,1.55l15.75,43.42c.18.56,0,1.05-.87,1.05m61.55,52.07c0-1.24-.87-1.4-2.25-1.4a38.36,38.36,0,0,1-7.4-.72C502,447.5,497,445,490.31,429.13,479.08,402.32,451,331.75,446.8,322c-1.73-4.08-2.79-5.66-4.37-5.66-1.79,0-2.81,1.93-4.91,7.06l-44,109.43c-3.53,8.78-6.84,14.82-14.92,15.86a50.91,50.91,0,0,1-5.41.37c-1.42,0-2.13.34-2.13,1.4,0,1.4,1.05,1.78,3.34,1.78,9.13,0,18.78-.53,20.7-.53,5.41,0,13,.53,18.57.53,1.94,0,3-.38,3-1.78,0-1.06-.53-1.4-2.63-1.4H411.4c-5.45,0-7-2.31-7-5.48A34.08,34.08,0,0,1,407,432.86l9.47-24.19c.37-1.06.72-1.4,1.58-1.4h39.08a1.68,1.68,0,0,1,1.77,1.21l14,36.37a2.86,2.86,0,0,1-1.57,4c-1.77.19-2.45.53-2.45,1.59,0,1.25,2.08,1.25,5.23,1.4,14.05.38,26.83.38,33.18.38s8-.38,8-1.78" transform="translate(-71 -25.63)"/><path d="M255.31,384.85c-5.79,0-15.07.53-20.52.53-5.26,0-16.3-.53-25.43-.53-2.45,0-3.65.34-3.65,1.77,0,1.06,1,1.4,2.59,1.4a36.88,36.88,0,0,1,6.84.53c5.79,1.21,7.4,4.08,7.55,10.06.19,5.29.19,12,.19,20.8V436c0,3-.71,5.29-3.34,6.55-4.21,1.92-10.34,1.92-14.92,1.92-37,0-61-28.4-61-66.33,0-21.71,6.28-34.94,16.09-43.25C172,324.65,184.82,324,194.44,324c19.84,0,33.85,8.13,39.15,13.77,4.55,4.92,5.42,10.59,5.94,14.64.18,1.43.52,2.3,1.77,2.3s1.91-.87,1.91-3.71c0-22,1.21-27,1.21-28.93,0-1.24-.34-2-2.45-2.11a115,115,0,0,1-13.86-2,212.64,212.64,0,0,0-31-2.83c-14.73,0-30.33,1.25-47.16,11.49-15.93,9.72-30.51,29.49-30.51,57.7,0,48.71,38.06,69.17,81,69.17,13.68,0,30.85-1.93,42.28-7.94,2.1-1.21,2.26-1.59,2.26-6.32V419.79c0-8.82,0-15.89.18-21.18.19-6.17,2-9.19,6.68-10.06a28.26,28.26,0,0,1,4.74-.53c1.2,0,2.25-.34,2.25-1.4,0-1.43-1.23-1.77-3.49-1.77" transform="translate(-71 -25.63)"/><path d="M1125.61,609.12c0,51-28.4,57-40.69,57-33.67,0-53.85-29.12-53.85-65.8,0-43.94,23-55.25,43.14-55.25,28.78,0,51.4,24.52,51.4,64.06m-118.7-3.36c0,31.23,20.3,69.19,70.64,69.19,44.53,0,72.6-31.94,72.6-72.37s-27.2-66-70.83-66c-52.61,0-72.41,39-72.41,69.16" transform="translate(-71 -25.63)"/><path d="M809.5,539.59c-4.91,0-16-.54-25.25-.54-2.63,0-3.86.38-3.86,1.59s1.05,1.59,3,1.59a37.4,37.4,0,0,1,6.87.53c5.78,1.25,7.18,4.08,7.51,10.06.34,5.67.34,10.58.34,37.43v31c0,16.22,0,30.18-.86,37.58-.68,5.11-1.58,9-5.07,9.72a29.21,29.21,0,0,1-6.32.72c-2.13,0-2.82.5-2.82,1.4,0,1.24,1.24,1.74,3.51,1.74,7,0,18.07-.5,22.12-.5,4.55,0,15.6.5,27.17.5,1.92,0,3.31-.5,3.31-1.74,0-.9-.86-1.4-2.78-1.4a75.94,75.94,0,0,1-9-.72c-5.26-.71-6.31-4.61-6.84-9.53-.89-7.59-.89-21.55-.89-37.77V550.7c0-1.93.55-3,1.42-3.36a27.47,27.47,0,0,1,24.35,6.19c9.84,8.81,10.37,20.65,10.37,26.48,0,18-13.68,29.12-23.52,29.12-3.68,0-4.89.52-4.89,1.92s1.21,1.43,2.11,1.59a23.63,23.63,0,0,0,3.68.19c24.88,0,43.1-17.63,43.1-42.7a31,31,0,0,0-8.72-21c-2.81-2.64-10.71-10.06-32.62-10.06-8.08,0-18.25.54-25.44.54" transform="translate(-71 -25.63)"/><path d="M301,540c-2.44,0-6.46-.15-11-.34-4.37,0-9.47-.19-14.21-.19-2.63,0-3.86.38-3.86,1.62s1.08,1.56,3,1.56a36.81,36.81,0,0,1,6.84.53c5.78,1.24,7.17,4.07,7.51,10,.38,5.68.38,10.62.38,37.44v31c0,16.22,0,30.17-.87,37.58-.71,5.11-1.61,9-5.1,9.72a29.22,29.22,0,0,1-6.29.72c-2.13,0-2.84.5-2.84,1.37,0,1.24,1.23,1.77,3.53,1.77,3.49,0,8-.34,12.09-.34,4.21-.19,8.05-.19,10-.19,5.26,0,10.71.19,18.23.53s17.2.53,30.32.53c6.68,0,8.26,0,9.47-4.58a135.86,135.86,0,0,0,2.29-19.59c0-1.77,0-3.17-1.39-3.17s-1.58.68-1.92,2.65c-1.24,7.25-3.34,11-7.89,13s-11.92,2.15-16.5,2.15c-17.88,0-20.7-2.68-21-14.86-.15-5.1,0-21.32,0-27.33v-14c0-1,.19-1.74,1-1.74,4.24,0,21.6.19,24.94.5,6.47.71,8.92,3.36,9.81,6.91a42.29,42.29,0,0,1,.68,6.36,1.42,1.42,0,0,0,1.62,1.58c1.57,0,1.57-1.93,1.57-3.36,0-1.25.53-8.28.68-11.8.72-9,1.43-11.84,1.43-12.9s-.56-1.4-1.24-1.4c-.87,0-1.58.87-2.82,2.28-1.57,1.77-4.21,2.3-8.41,2.65-4,.34-24.2.34-28,.34-1.05,0-1.24-.69-1.24-1.94V550.61c0-1.22.34-1.74,1.24-1.74,3.5,0,21.91.34,24.88.68,8.76,1.06,10.52,3.18,11.76,6.35a19.48,19.48,0,0,1,1.05,6.39c0,1.58.34,2.46,1.58,2.46s1.58-1.06,1.76-1.94c.34-2.14.71-9.9.87-11.64.52-8.13,1.39-10.28,1.39-11.49,0-.87-.18-1.59-1.05-1.59a15.08,15.08,0,0,0-2.79.72c-1.42.34-4.24.68-7.58,1.06-3.31.15-38.19.15-43.82.15" transform="translate(-71 -25.63)"/><path d="M811.24,228.33c1.91,0,3.34-.53,3.34-1.78,0-.87-.86-1.39-2.26-1.39a69.43,69.43,0,0,1-8.6-.72c-4.4-.69-6-4.58-6.32-9.53-.55-7.57-.55-21.52-.55-37.74V161.1h.9l1.92,2.65c3.68,5.1,38.25,45.87,46,52.75,7.52,6.69,12.25,10.58,21.75,11.46a115.61,115.61,0,0,0,12.1.37h15.26c3.32,0,4.21-.53,4.21-1.78,0-1.05-1.05-1.39-2.29-1.39-2.11,0-5.61-.53-10.89-2.65-9.48-3.71-17.36-11.65-25.07-19.06-6.84-6.54-41.19-43.79-47.54-52.07,6-6.35,32.47-32.82,37.91-38.12,7.53-7.41,13.5-11.12,18.91-13.23a33.74,33.74,0,0,1,10.21-1.93c1.73,0,2.6-.37,2.6-1.59s-1.2-1.59-3-1.59c-5.46,0-15.08.53-20.52.53-4.74,0-14.39-.53-18.08-.53-1.92,0-2.81.35-2.81,1.59,0,1,.71,1.4,2.29,1.78,1.76.34,2.44,1.58,2.44,3.52,0,3-3.84,7.41-8.75,13.23-5.08,6-30.67,32.29-36.64,38.8h-.9v-7.75c0-26.82,0-31.77.37-37.43.34-6.17,1.76-9.16,6.5-10a27,27,0,0,1,4.89-.53c1.39,0,2.48-.37,2.48-1.59s-1.24-1.59-3.69-1.59c-6,0-17,.53-21.23.53s-15.25-.53-24.57-.53c-2.63,0-3.83.35-3.83,1.59s1,1.59,3,1.59a37.2,37.2,0,0,1,6.86.53c5.76,1.24,7.16,4,7.53,10,.34,5.66.34,10.61.34,37.43v31.08c0,16.22,0,30.17-.9,37.55-.68,5.14-1.55,9-5,9.72a27.65,27.65,0,0,1-6.32.72c-2.1,0-2.81.52-2.81,1.39,0,1.25,1.2,1.78,3.49,1.78,7,0,18.08-.53,22.13-.53,4.36,0,15.41.53,25.22.53" transform="translate(-71 -25.63)"/><path d="M517.42,108.65c.33,5.67.33,10.62.33,37.44v25.78c0,25.57,6.69,38.62,15.6,46.75,12.81,11.64,29.64,12.17,38.93,12.17,11.42,0,24-1.93,36.49-12.7,14.73-12.71,16.64-33.55,16.64-53.1v-18.9c0-26.82,0-31.77.37-37.44.34-6.16,1.74-9.15,6.47-10a27.39,27.39,0,0,1,5.11-.53c2.07,0,3.15-.37,3.15-1.59s-1.23-1.59-3.71-1.59c-6.81,0-17.85.53-20,.53-.15,0-11.2-.53-20.14-.53-2.48,0-3.69.35-3.69,1.59s1.06,1.59,3,1.59a34.6,34.6,0,0,1,6.29.53c5.78,1.24,7.21,4,7.55,10,.34,5.67.34,10.62.34,37.44v22c0,18.19-.5,34.07-10.15,43.79-7,7.07-16.5,9.53-24.2,9.53-6,0-14-.72-21.94-7.26-8.57-7-13.68-17.81-13.68-43.41V146.09c0-26.82,0-31.77.37-37.44.34-6.16,1.74-9.15,6.47-10a27.17,27.17,0,0,1,5.08-.53c1.76,0,2.81-.37,2.81-1.59s-1.24-1.59-3.87-1.59c-6.28,0-17.36.53-21.54.53-5.25,0-16.33-.53-25.62-.53-2.63,0-3.83.35-3.83,1.59s1.05,1.59,3,1.59a37.08,37.08,0,0,1,6.85.53c5.78,1.24,7.17,4,7.55,10" transform="translate(-71 -25.63)"/><path d="M584.72,542.23a21.54,21.54,0,0,1,5.63.53c1.73.56,3,2,3,3.18a15.39,15.39,0,0,1-1.91,6.72c-2.64,5-18.79,29.47-23.86,37.22-6.84-12-14.74-24.85-22.25-39a12.9,12.9,0,0,1-1.77-5.1,2.9,2.9,0,0,1,2.11-2.84,16.16,16.16,0,0,1,4.73-.72c1.58,0,2.6-.34,2.6-1.59s-1-1.59-3.5-1.59c-6.46,0-16.31.54-18.74.54-8.27,0-22.44-.54-26.65-.54-2.29,0-3.5.38-3.5,1.44a1.56,1.56,0,0,0,1.74,1.74,27.05,27.05,0,0,1,7.36,1.25c6.16,1.93,10.34,6.19,14.55,13.23L554.4,607l-33.49,48.17c-6,8.47-9.31,11.83-14.39,13.23a26.91,26.91,0,0,1-6.5.91c-1.39,0-2.44.5-2.44,1.56s.9,1.58,2.63,1.58h3c2.82,0,11.42-.5,14.73-.5,4.4,0,15.44.5,16.46.5h3.19c2.29,0,3.5-.34,3.5-1.58,0-1.06-1-1.56-2.11-1.56a24.53,24.53,0,0,1-4-.38c-1.58-.34-3.16-1.4-3.34-3-.16-2,.71-4.61,2.48-7.41L560,616.35c8.08,13.23,18.07,30.7,27.73,48,1.21,2.3.5,3.89-.34,4-1.61.38-2.47.91-2.47,1.94,0,1.24,1.39,1.61,6,1.77,13.49.34,27.36.34,31.56.34h5.26c1.92,0,3.32-.5,3.32-1.74,0-1.06-1.06-1.4-2.26-1.4a23,23,0,0,1-6.66-1.06c-4.58-1.43-7.21-3.55-10.18-7.44-4.39-5.64-32.8-53.47-38.4-62.1l28.74-41.64c5.27-7.78,8.76-12.7,12.82-13.76a23.26,23.26,0,0,1,6.31-1.09c1.76,0,2.78-.53,2.78-1.59s-1.2-1.59-3.15-1.59c-6.47,0-13.65.54-17.18.54-3.34,0-10.67-.54-17.54-.54-2.45,0-3.68.54-3.68,1.59,0,1.25,1,1.59,2.1,1.59" transform="translate(-71 -25.63)"/></svg>